<svg width="63" height="64" viewBox="0 0 63 64" fill="none" xmlns="http://www.w3.org/2000/svg">
<circle cx="31.3538" cy="31.9084" r="31.3538" fill="white"/>
<path d="M26.3211 49.0563C24.4041 49.0563 22.6658 48.6162 21.1062 47.7358C19.5466 46.8228 18.2957 45.6164 17.3534 44.1165C16.4437 42.584 15.9888 40.8559 15.9888 38.9321C15.9888 37.4974 16.2974 36.1606 16.9148 34.9216C17.5646 33.6499 18.4256 32.5576 19.4979 31.6446C18.4906 30.7643 17.6783 29.7209 17.061 28.5144C16.4437 27.308 16.135 26.0364 16.135 24.6995C16.135 22.841 16.5899 21.1617 17.4996 19.6618C18.4094 18.162 19.6278 16.9881 21.155 16.1404C22.6821 15.26 24.3716 14.8198 26.2237 14.8198L35.219 14.8198C37.1095 14.8198 38.6421 16.3606 38.6421 18.2612C38.6421 20.167 37.1013 21.71 35.2055 21.7025L27.4908 21.6671C26.5486 21.6671 25.7363 21.9932 25.054 22.6453C24.4041 23.2648 24.0792 24.0474 24.0792 24.993C24.0792 25.9385 24.4041 26.7211 25.054 27.3406C25.7363 27.9601 26.5486 28.2699 27.4908 28.2699H38.4401C40.3209 28.2699 41.8457 29.8027 41.8457 31.6935C41.8457 33.5844 40.3209 35.1172 38.4401 35.1172H27.7345C26.6948 35.1172 25.8175 35.4596 25.1027 36.1443C24.4204 36.829 24.0792 37.6768 24.0792 38.6876C24.0792 39.6984 24.4204 40.5298 25.1027 41.1819C25.8175 41.8341 26.6948 42.1601 27.7345 42.1601H31.6767C33.571 42.1601 34.7616 43.6799 35.1066 45.6082C35.414 47.326 36.1517 49.0563 33.8772 49.0563H26.3211Z" fill="#3043A9"/>
<path d="M43.4669 42.1601H38.2292C36.1391 42.1601 36.9997 43.7417 37.6144 45.6082C38.2292 47.4748 38.3786 48.9454 40.5777 49.0563L43.4669 49.0563C45.3611 49.0563 46.8967 47.5126 46.8967 45.6082C46.8967 43.7039 45.3611 42.1601 43.4669 42.1601Z" fill="#3043A9"/>
</svg>
